<mxfile host="Electron" agent="Mozilla/5.0 (X11; Linux x86_64) AppleWebKit/537.36 (KHTML, like Gecko) draw.io/24.7.17 Chrome/128.0.6613.186 Electron/32.2.3 Safari/537.36" version="24.7.17">
  <diagram name="Page-1" id="a5Hr0Xz3E0bzSAznud6W">
    <mxGraphModel dx="622" dy="811" grid="1" gridSize="10" guides="1" tooltips="1" connect="1" arrows="1" fold="1" page="1" pageScale="1" pageWidth="850" pageHeight="1100" math="0" shadow="0">
      <root>
        <mxCell id="0" />
        <mxCell id="1" parent="0" />
        <mxCell id="EluaAn_V41UYYAZJ1wK3-3" style="edgeStyle=orthogonalEdgeStyle;rounded=0;orthogonalLoop=1;jettySize=auto;html=1;entryX=0.5;entryY=0;entryDx=0;entryDy=0;" edge="1" parent="1" source="EluaAn_V41UYYAZJ1wK3-1" target="EluaAn_V41UYYAZJ1wK3-2">
          <mxGeometry relative="1" as="geometry" />
        </mxCell>
        <mxCell id="EluaAn_V41UYYAZJ1wK3-1" value="start" style="ellipse;whiteSpace=wrap;html=1;" vertex="1" parent="1">
          <mxGeometry x="365" y="60" width="120" height="80" as="geometry" />
        </mxCell>
        <mxCell id="EluaAn_V41UYYAZJ1wK3-5" style="edgeStyle=orthogonalEdgeStyle;rounded=0;orthogonalLoop=1;jettySize=auto;html=1;entryX=0.5;entryY=0;entryDx=0;entryDy=0;" edge="1" parent="1" source="EluaAn_V41UYYAZJ1wK3-2" target="EluaAn_V41UYYAZJ1wK3-4">
          <mxGeometry relative="1" as="geometry" />
        </mxCell>
        <mxCell id="EluaAn_V41UYYAZJ1wK3-2" value="string a" style="rounded=1;whiteSpace=wrap;html=1;" vertex="1" parent="1">
          <mxGeometry x="365" y="190" width="120" height="60" as="geometry" />
        </mxCell>
        <mxCell id="EluaAn_V41UYYAZJ1wK3-7" style="edgeStyle=orthogonalEdgeStyle;rounded=0;orthogonalLoop=1;jettySize=auto;html=1;entryX=0.5;entryY=0;entryDx=0;entryDy=0;" edge="1" parent="1" source="EluaAn_V41UYYAZJ1wK3-4" target="EluaAn_V41UYYAZJ1wK3-6">
          <mxGeometry relative="1" as="geometry" />
        </mxCell>
        <mxCell id="EluaAn_V41UYYAZJ1wK3-4" value="int n" style="rounded=1;whiteSpace=wrap;html=1;" vertex="1" parent="1">
          <mxGeometry x="365" y="300" width="120" height="60" as="geometry" />
        </mxCell>
        <mxCell id="EluaAn_V41UYYAZJ1wK3-9" style="edgeStyle=orthogonalEdgeStyle;rounded=0;orthogonalLoop=1;jettySize=auto;html=1;entryX=0.5;entryY=0;entryDx=0;entryDy=0;" edge="1" parent="1" source="EluaAn_V41UYYAZJ1wK3-6" target="EluaAn_V41UYYAZJ1wK3-8">
          <mxGeometry relative="1" as="geometry" />
        </mxCell>
        <mxCell id="EluaAn_V41UYYAZJ1wK3-6" value="enter string and number" style="shape=parallelogram;perimeter=parallelogramPerimeter;whiteSpace=wrap;html=1;fixedSize=1;" vertex="1" parent="1">
          <mxGeometry x="365" y="410" width="120" height="60" as="geometry" />
        </mxCell>
        <mxCell id="EluaAn_V41UYYAZJ1wK3-49" style="edgeStyle=orthogonalEdgeStyle;rounded=0;orthogonalLoop=1;jettySize=auto;html=1;entryX=0.5;entryY=0;entryDx=0;entryDy=0;" edge="1" parent="1" source="EluaAn_V41UYYAZJ1wK3-8" target="EluaAn_V41UYYAZJ1wK3-48">
          <mxGeometry relative="1" as="geometry" />
        </mxCell>
        <mxCell id="EluaAn_V41UYYAZJ1wK3-8" value="print isPalindrome(string a)" style="shape=parallelogram;perimeter=parallelogramPerimeter;whiteSpace=wrap;html=1;fixedSize=1;" vertex="1" parent="1">
          <mxGeometry x="330" y="520" width="190" height="60" as="geometry" />
        </mxCell>
        <mxCell id="EluaAn_V41UYYAZJ1wK3-12" style="edgeStyle=orthogonalEdgeStyle;rounded=0;orthogonalLoop=1;jettySize=auto;html=1;entryX=0.5;entryY=0;entryDx=0;entryDy=0;" edge="1" parent="1" source="EluaAn_V41UYYAZJ1wK3-10" target="EluaAn_V41UYYAZJ1wK3-11">
          <mxGeometry relative="1" as="geometry" />
        </mxCell>
        <mxCell id="EluaAn_V41UYYAZJ1wK3-10" value="&lt;div&gt;isPalindrom(string str)&lt;/div&gt;" style="ellipse;whiteSpace=wrap;html=1;" vertex="1" parent="1">
          <mxGeometry x="590" y="180" width="240" height="80" as="geometry" />
        </mxCell>
        <mxCell id="EluaAn_V41UYYAZJ1wK3-14" style="edgeStyle=orthogonalEdgeStyle;rounded=0;orthogonalLoop=1;jettySize=auto;html=1;entryX=0.5;entryY=0;entryDx=0;entryDy=0;" edge="1" parent="1" source="EluaAn_V41UYYAZJ1wK3-11" target="EluaAn_V41UYYAZJ1wK3-13">
          <mxGeometry relative="1" as="geometry" />
        </mxCell>
        <mxCell id="EluaAn_V41UYYAZJ1wK3-15" value="true" style="edgeLabel;html=1;align=center;verticalAlign=middle;resizable=0;points=[];" vertex="1" connectable="0" parent="EluaAn_V41UYYAZJ1wK3-14">
          <mxGeometry x="-0.4682" relative="1" as="geometry">
            <mxPoint as="offset" />
          </mxGeometry>
        </mxCell>
        <mxCell id="EluaAn_V41UYYAZJ1wK3-17" style="edgeStyle=orthogonalEdgeStyle;rounded=0;orthogonalLoop=1;jettySize=auto;html=1;exitX=0;exitY=0.5;exitDx=0;exitDy=0;entryX=0;entryY=0.5;entryDx=0;entryDy=0;" edge="1" parent="1" source="EluaAn_V41UYYAZJ1wK3-11" target="EluaAn_V41UYYAZJ1wK3-16">
          <mxGeometry relative="1" as="geometry">
            <Array as="points">
              <mxPoint x="540" y="330" />
              <mxPoint x="540" y="550" />
            </Array>
          </mxGeometry>
        </mxCell>
        <mxCell id="EluaAn_V41UYYAZJ1wK3-18" value="false" style="edgeLabel;html=1;align=center;verticalAlign=middle;resizable=0;points=[];" vertex="1" connectable="0" parent="EluaAn_V41UYYAZJ1wK3-17">
          <mxGeometry x="-0.7062" y="-2" relative="1" as="geometry">
            <mxPoint as="offset" />
          </mxGeometry>
        </mxCell>
        <mxCell id="EluaAn_V41UYYAZJ1wK3-11" value="length of str &amp;lt;= 1" style="rhombus;whiteSpace=wrap;html=1;" vertex="1" parent="1">
          <mxGeometry x="610" y="290" width="200" height="80" as="geometry" />
        </mxCell>
        <mxCell id="EluaAn_V41UYYAZJ1wK3-13" value="return true" style="ellipse;whiteSpace=wrap;html=1;" vertex="1" parent="1">
          <mxGeometry x="650" y="400" width="120" height="80" as="geometry" />
        </mxCell>
        <mxCell id="EluaAn_V41UYYAZJ1wK3-22" style="edgeStyle=orthogonalEdgeStyle;rounded=0;orthogonalLoop=1;jettySize=auto;html=1;entryX=0.5;entryY=0;entryDx=0;entryDy=0;" edge="1" parent="1" source="EluaAn_V41UYYAZJ1wK3-16" target="EluaAn_V41UYYAZJ1wK3-21">
          <mxGeometry relative="1" as="geometry" />
        </mxCell>
        <mxCell id="EluaAn_V41UYYAZJ1wK3-23" value="true" style="edgeLabel;html=1;align=center;verticalAlign=middle;resizable=0;points=[];" vertex="1" connectable="0" parent="EluaAn_V41UYYAZJ1wK3-22">
          <mxGeometry x="0.24" y="-1" relative="1" as="geometry">
            <mxPoint as="offset" />
          </mxGeometry>
        </mxCell>
        <mxCell id="EluaAn_V41UYYAZJ1wK3-27" style="edgeStyle=orthogonalEdgeStyle;rounded=0;orthogonalLoop=1;jettySize=auto;html=1;exitX=1;exitY=0.5;exitDx=0;exitDy=0;entryX=1;entryY=0.5;entryDx=0;entryDy=0;" edge="1" parent="1" source="EluaAn_V41UYYAZJ1wK3-16" target="EluaAn_V41UYYAZJ1wK3-26">
          <mxGeometry relative="1" as="geometry" />
        </mxCell>
        <mxCell id="EluaAn_V41UYYAZJ1wK3-29" value="false" style="edgeLabel;html=1;align=center;verticalAlign=middle;resizable=0;points=[];" vertex="1" connectable="0" parent="EluaAn_V41UYYAZJ1wK3-27">
          <mxGeometry x="-0.7907" relative="1" as="geometry">
            <mxPoint as="offset" />
          </mxGeometry>
        </mxCell>
        <mxCell id="EluaAn_V41UYYAZJ1wK3-16" value="first and last characters are the same" style="rhombus;whiteSpace=wrap;html=1;" vertex="1" parent="1">
          <mxGeometry x="570" y="510" width="280" height="80" as="geometry" />
        </mxCell>
        <mxCell id="EluaAn_V41UYYAZJ1wK3-25" style="edgeStyle=orthogonalEdgeStyle;rounded=0;orthogonalLoop=1;jettySize=auto;html=1;entryX=0.5;entryY=0;entryDx=0;entryDy=0;" edge="1" parent="1" source="EluaAn_V41UYYAZJ1wK3-21" target="EluaAn_V41UYYAZJ1wK3-24">
          <mxGeometry relative="1" as="geometry" />
        </mxCell>
        <mxCell id="EluaAn_V41UYYAZJ1wK3-21" value="temp = str without first and last character" style="rounded=1;whiteSpace=wrap;html=1;" vertex="1" parent="1">
          <mxGeometry x="650" y="620" width="120" height="60" as="geometry" />
        </mxCell>
        <mxCell id="EluaAn_V41UYYAZJ1wK3-24" value="return temp" style="ellipse;whiteSpace=wrap;html=1;" vertex="1" parent="1">
          <mxGeometry x="650" y="710" width="120" height="80" as="geometry" />
        </mxCell>
        <mxCell id="EluaAn_V41UYYAZJ1wK3-26" value="return false" style="ellipse;whiteSpace=wrap;html=1;" vertex="1" parent="1">
          <mxGeometry x="650" y="820" width="120" height="80" as="geometry" />
        </mxCell>
        <mxCell id="EluaAn_V41UYYAZJ1wK3-32" style="edgeStyle=orthogonalEdgeStyle;rounded=0;orthogonalLoop=1;jettySize=auto;html=1;entryX=0.5;entryY=0;entryDx=0;entryDy=0;" edge="1" parent="1" source="EluaAn_V41UYYAZJ1wK3-30" target="EluaAn_V41UYYAZJ1wK3-31">
          <mxGeometry relative="1" as="geometry" />
        </mxCell>
        <mxCell id="EluaAn_V41UYYAZJ1wK3-30" value="&lt;div&gt;isPalindrom(int n)&lt;/div&gt;" style="ellipse;whiteSpace=wrap;html=1;" vertex="1" parent="1">
          <mxGeometry x="940" y="180" width="240" height="80" as="geometry" />
        </mxCell>
        <mxCell id="EluaAn_V41UYYAZJ1wK3-34" style="edgeStyle=orthogonalEdgeStyle;rounded=0;orthogonalLoop=1;jettySize=auto;html=1;entryX=0.5;entryY=0;entryDx=0;entryDy=0;" edge="1" parent="1" source="EluaAn_V41UYYAZJ1wK3-31" target="EluaAn_V41UYYAZJ1wK3-33">
          <mxGeometry relative="1" as="geometry" />
        </mxCell>
        <mxCell id="EluaAn_V41UYYAZJ1wK3-31" value="reverse = 0" style="rounded=1;whiteSpace=wrap;html=1;" vertex="1" parent="1">
          <mxGeometry x="1000" y="300" width="120" height="60" as="geometry" />
        </mxCell>
        <mxCell id="EluaAn_V41UYYAZJ1wK3-37" style="edgeStyle=orthogonalEdgeStyle;rounded=0;orthogonalLoop=1;jettySize=auto;html=1;entryX=0.5;entryY=0;entryDx=0;entryDy=0;" edge="1" parent="1" source="EluaAn_V41UYYAZJ1wK3-33" target="EluaAn_V41UYYAZJ1wK3-35">
          <mxGeometry relative="1" as="geometry" />
        </mxCell>
        <mxCell id="EluaAn_V41UYYAZJ1wK3-33" value="temp = n" style="rounded=1;whiteSpace=wrap;html=1;" vertex="1" parent="1">
          <mxGeometry x="1000" y="400" width="120" height="60" as="geometry" />
        </mxCell>
        <mxCell id="EluaAn_V41UYYAZJ1wK3-39" style="edgeStyle=orthogonalEdgeStyle;rounded=0;orthogonalLoop=1;jettySize=auto;html=1;entryX=0.5;entryY=0;entryDx=0;entryDy=0;" edge="1" parent="1" source="EluaAn_V41UYYAZJ1wK3-35" target="EluaAn_V41UYYAZJ1wK3-38">
          <mxGeometry relative="1" as="geometry" />
        </mxCell>
        <mxCell id="EluaAn_V41UYYAZJ1wK3-43" value="temp" style="edgeLabel;html=1;align=center;verticalAlign=middle;resizable=0;points=[];" vertex="1" connectable="0" parent="EluaAn_V41UYYAZJ1wK3-39">
          <mxGeometry x="-0.3" relative="1" as="geometry">
            <mxPoint as="offset" />
          </mxGeometry>
        </mxCell>
        <mxCell id="EluaAn_V41UYYAZJ1wK3-47" style="edgeStyle=orthogonalEdgeStyle;rounded=0;orthogonalLoop=1;jettySize=auto;html=1;exitX=0;exitY=0.5;exitDx=0;exitDy=0;entryX=0;entryY=0.5;entryDx=0;entryDy=0;" edge="1" parent="1" source="EluaAn_V41UYYAZJ1wK3-35" target="EluaAn_V41UYYAZJ1wK3-44">
          <mxGeometry relative="1" as="geometry">
            <Array as="points">
              <mxPoint x="920" y="540" />
              <mxPoint x="920" y="860" />
            </Array>
          </mxGeometry>
        </mxCell>
        <mxCell id="EluaAn_V41UYYAZJ1wK3-35" value="temp != 0" style="rhombus;whiteSpace=wrap;html=1;" vertex="1" parent="1">
          <mxGeometry x="980" y="500" width="160" height="80" as="geometry" />
        </mxCell>
        <mxCell id="EluaAn_V41UYYAZJ1wK3-41" style="edgeStyle=orthogonalEdgeStyle;rounded=0;orthogonalLoop=1;jettySize=auto;html=1;entryX=0.5;entryY=0;entryDx=0;entryDy=0;" edge="1" parent="1" source="EluaAn_V41UYYAZJ1wK3-38" target="EluaAn_V41UYYAZJ1wK3-40">
          <mxGeometry relative="1" as="geometry" />
        </mxCell>
        <mxCell id="EluaAn_V41UYYAZJ1wK3-38" value="reverse = (reverse * 10) + (temp % 10)" style="rounded=1;whiteSpace=wrap;html=1;" vertex="1" parent="1">
          <mxGeometry x="940" y="620" width="240" height="60" as="geometry" />
        </mxCell>
        <mxCell id="EluaAn_V41UYYAZJ1wK3-42" style="edgeStyle=orthogonalEdgeStyle;rounded=0;orthogonalLoop=1;jettySize=auto;html=1;entryX=1;entryY=0.5;entryDx=0;entryDy=0;" edge="1" parent="1" source="EluaAn_V41UYYAZJ1wK3-40" target="EluaAn_V41UYYAZJ1wK3-35">
          <mxGeometry relative="1" as="geometry">
            <Array as="points">
              <mxPoint x="1210" y="750" />
              <mxPoint x="1210" y="540" />
            </Array>
          </mxGeometry>
        </mxCell>
        <mxCell id="EluaAn_V41UYYAZJ1wK3-40" value="temp = temp / 10" style="rounded=1;whiteSpace=wrap;html=1;" vertex="1" parent="1">
          <mxGeometry x="1000" y="720" width="120" height="60" as="geometry" />
        </mxCell>
        <mxCell id="EluaAn_V41UYYAZJ1wK3-44" value="return reverse == n" style="ellipse;whiteSpace=wrap;html=1;" vertex="1" parent="1">
          <mxGeometry x="990" y="820" width="140" height="80" as="geometry" />
        </mxCell>
        <mxCell id="EluaAn_V41UYYAZJ1wK3-51" style="edgeStyle=orthogonalEdgeStyle;rounded=0;orthogonalLoop=1;jettySize=auto;html=1;entryX=0.5;entryY=0;entryDx=0;entryDy=0;" edge="1" parent="1" source="EluaAn_V41UYYAZJ1wK3-48" target="EluaAn_V41UYYAZJ1wK3-50">
          <mxGeometry relative="1" as="geometry" />
        </mxCell>
        <mxCell id="EluaAn_V41UYYAZJ1wK3-48" value="print isPalindrome(int n)" style="shape=parallelogram;perimeter=parallelogramPerimeter;whiteSpace=wrap;html=1;fixedSize=1;" vertex="1" parent="1">
          <mxGeometry x="330" y="630" width="190" height="60" as="geometry" />
        </mxCell>
        <mxCell id="EluaAn_V41UYYAZJ1wK3-50" value="end" style="ellipse;whiteSpace=wrap;html=1;" vertex="1" parent="1">
          <mxGeometry x="365" y="740" width="120" height="80" as="geometry" />
        </mxCell>
      </root>
    </mxGraphModel>
  </diagram>
</mxfile>
